<svg width="18" height="18" viewBox="0 0 18 18" fill="none" xmlns="http://www.w3.org/2000/svg">
<path d="M8.99999 0.666656C4.40832 0.666656 0.666656 4.40832 0.666656 8.99999C0.666656 13.5917 4.40832 17.3333 8.99999 17.3333C13.5917 17.3333 17.3333 13.5917 17.3333 8.99999C17.3333 4.40832 13.5917 0.666656 8.99999 0.666656ZM12.625 11.975C12.5083 12.175 12.3 12.2833 12.0833 12.2833C11.975 12.2833 11.8667 12.2583 11.7667 12.1917L9.18332 10.65C8.54166 10.2667 8.06666 9.42499 8.06666 8.68332V5.26666C8.06666 4.92499 8.34999 4.64166 8.69166 4.64166C9.03332 4.64166 9.31666 4.92499 9.31666 5.26666V8.68332C9.31666 8.98332 9.56666 9.42499 9.82499 9.57499L12.4083 11.1167C12.7083 11.2917 12.8083 11.675 12.625 11.975Z" fill="#9293B9"/>
</svg>
